<svg width="31" height="24" viewBox="0 0 31 24" fill="none" xmlns="http://www.w3.org/2000/svg">
<g clip-path="url(#clip0_16_1541)">
<path d="M27.9999 0.54541H2.54547C1.14158 0.54541 0 1.68699 0 3.09088V20.9091C0 22.313 1.14158 23.4545 2.54547 23.4545H28C29.4039 23.4545 30.5455 22.313 30.5455 20.909V3.09088C30.5455 1.68699 29.4039 0.54541 27.9999 0.54541ZM2.54547 1.81812H28C28.0939 1.81812 28.1764 1.8523 28.2645 1.87163C26.0607 3.88852 18.7534 10.5735 16.1963 12.8774C15.9961 13.0577 15.6736 13.2726 15.2728 13.2726C14.8719 13.2726 14.5495 13.0577 14.3486 12.8768C11.7917 10.5732 4.48404 3.88793 2.28064 1.87175C2.36882 1.85242 2.45163 1.81812 2.54547 1.81812ZM1.27271 20.909V3.09088C1.27271 2.96619 1.31029 2.85309 1.34395 2.73913C3.03062 4.28288 8.12932 8.94725 11.4353 11.9537C8.14007 14.7843 3.04005 19.6195 1.33994 21.2407C1.30993 21.1325 1.27271 21.0267 1.27271 20.909ZM27.9999 22.1818H2.54547C2.44381 22.1818 2.35343 22.1464 2.25851 22.1237C4.0153 20.4489 9.14776 15.5859 12.3852 12.8163C12.8072 13.1992 13.1927 13.5482 13.4966 13.8221C14.0211 14.2957 14.6351 14.5455 15.2727 14.5455C15.9104 14.5455 16.5243 14.2956 17.0482 13.8226C17.3522 13.5487 17.7381 13.1993 18.1603 12.8163C21.3979 15.5856 26.5296 20.4483 28.2869 22.1237C28.192 22.1464 28.1017 22.1818 27.9999 22.1818ZM29.2728 20.909C29.2728 21.0266 29.2355 21.1325 29.2056 21.2407C27.5048 19.6188 22.4054 14.784 19.1101 11.9537C22.4163 8.94732 27.5143 4.28336 29.2016 2.73901C29.2352 2.85297 29.2728 2.96614 29.2728 3.09083V20.909Z" fill="black"/>
</g>
<defs>
<clipPath id="clip0_16_1541">
<rect width="30.5455" height="24" fill="white"/>
</clipPath>
</defs>
</svg>
