<svg id="Layer_1" data-name="Layer 1" xmlns="http://www.w3.org/2000/svg" viewBox="0 0 1500 1500"><path d="M1555.5,152a35.29,35.29,0,0,0-45,21.84l-25.84,74.68-11.85-4.1a35.39,35.39,0,0,0-44.93,21.83L1277.13,701.58l167,57.83,100-288.66c21.25,33.07,47.68,89.23,28.39,145l-115.67,334a35.35,35.35,0,0,0,66.81,23.12l115.64-334c44-126.93-61.24-241.24-65.72-246-.62-.61-1.22-1.07-1.88-1.66L1594.91,324a35.47,35.47,0,0,0-21.86-45l-21.58-7.45,25.87-74.69A35.29,35.29,0,0,0,1555.5,152Z" transform="translate(-150 -150)"/><path d="M1254.33,767.33l-190.91,551.43.11,0c-42.66,128.37-26.75,331.2-26.75,331.2S1185,1500.79,1230.3,1376.55l.22.07,190.93-551.44Z" transform="translate(-150 -150)"/><path d="M372.47,1271.49C303,1253.83,227,1289.76,176.39,1335.86c-55.58,50.7-15.42,93.47,46.94,86.49,97.68-10.91,193.89-59.76,287.74-86.6,12.58-3.62,146.77-33.6,142.81-12.14-4.16,22.56-46.42,48.15-62.4,61.63-35.6,30-115,79.53-114.16,133.18.92,62.12,140,4.77,159.92-3,17.74-6.89,166.12-65.46,151.28-27.37-14.22,36.52-46.38,53.53-20.5,95.51,40.62,65.9,176.32,67.29,243.58,66.17,3-.07,22.46.21,25.18.21a82.85,82.85,0,0,0,3.18-10.7s8.22-4.09,1.42-4.9c-3.91-.47-8.49-.72-12.85-.88-58.2-2.46-257.93-11.33-227.65-107.81,5.62-17.91,37.47-40.72,28.06-61.26-7-15.22-39.27-12.66-51.92-10.93-35.62,5-69.33,17.47-102.71,30.38-36.7,14.15-99,53-139,42.78C471.52,1510.34,597.56,1409,613,1395.92c12.7-10.74,94.29-65.36,79.76-88.33-20.74-32.8-132.12.14-158.94,6.59-88.88,21.52-173.73,57-261.59,82-26,7.43-92.53,23.41-83.36-26.53,10-54.68,105.34-93.21,150.83-81.63,10,2.57,45.73-13.27,32.78-16.55Z" transform="translate(-150 -150)"/></svg>