<svg width="27" height="27" viewBox="0 0 27 27" fill="none" xmlns="http://www.w3.org/2000/svg">
<g clip-path="url(#clip0_16_1543)">
<mask id="mask0_16_1543" style="mask-type:luminance" maskUnits="userSpaceOnUse" x="0" y="0" width="27" height="27">
<path d="M27 0H0V27H27V0Z" fill="white"/>
</mask>
<g mask="url(#mask0_16_1543)">
<path d="M21.3384 16.7256C20.7857 16.15 20.119 15.8423 19.4123 15.8423C18.7114 15.8423 18.039 16.1443 17.4634 16.7198L15.6627 18.5149C15.5145 18.4351 15.3664 18.361 15.2239 18.287C15.0187 18.1844 14.825 18.0875 14.6597 17.985C12.9729 16.9136 11.4401 15.5175 9.96985 13.7111C9.25751 12.8107 8.77884 12.0528 8.43122 11.2835C8.89851 10.8561 9.3316 10.4116 9.75327 9.9842C9.91286 9.82461 10.0724 9.65942 10.2319 9.49983C11.4286 8.30313 11.4286 6.75313 10.2319 5.55644L8.67626 4.00074C8.49961 3.82409 8.31725 3.64173 8.14629 3.45938C7.80439 3.10607 7.44537 2.74136 7.07497 2.39945C6.52222 1.85239 5.86119 1.56177 5.16597 1.56177C4.47075 1.56177 3.79831 1.85239 3.22846 2.39945C3.22276 2.40515 3.22277 2.40515 3.21707 2.41085L1.27956 4.36545C0.550149 5.09486 0.134157 5.98383 0.0429799 7.01527C-0.093785 8.67924 0.396289 10.2292 0.772392 11.2436C1.69555 13.7338 3.07461 16.0417 5.13177 18.5149C7.62773 21.4953 10.6309 23.8487 14.0614 25.507C15.3721 26.1282 17.1215 26.8632 19.0761 26.9886C19.1957 26.9943 19.3211 27 19.4351 27C20.7514 27 21.857 26.5271 22.7231 25.5868C22.7289 25.5753 22.7403 25.5697 22.746 25.5583C23.0423 25.1993 23.3842 24.8745 23.7432 24.5269C23.9882 24.2932 24.239 24.0482 24.484 23.7917C25.0482 23.2048 25.3445 22.521 25.3445 21.82C25.3445 21.1134 25.0425 20.4353 24.4669 19.8654L21.3384 16.7256ZM23.3785 22.7262C23.3727 22.7262 23.3727 22.7319 23.3785 22.7262C23.1563 22.9655 22.9283 23.182 22.6833 23.4213C22.3129 23.7746 21.9367 24.145 21.5834 24.561C21.0079 25.1765 20.3297 25.4672 19.4408 25.4672C19.3553 25.4672 19.2641 25.4671 19.1787 25.4615C17.4862 25.3532 15.9134 24.6922 14.7338 24.128C11.5085 22.5666 8.67626 20.3499 6.32276 17.5404C4.37956 15.1984 3.0803 13.0329 2.21982 10.7079C1.68985 9.28897 1.49611 8.18346 1.58158 7.14063C1.63857 6.47391 1.895 5.92115 2.36799 5.44817L4.31119 3.50497C4.59041 3.24284 4.88674 3.10037 5.17736 3.10037C5.53637 3.10037 5.82699 3.31691 6.00935 3.49927C6.01505 3.50497 6.02074 3.51067 6.02644 3.51636C6.37405 3.84118 6.70457 4.17739 7.05218 4.53641C7.22883 4.71875 7.41119 4.90111 7.59354 5.08916L9.14924 6.64486C9.75327 7.2489 9.75327 7.80736 9.14924 8.41141C8.98398 8.57667 8.82442 8.74192 8.65917 8.90148C8.18049 9.39156 7.7246 9.84746 7.22883 10.2919C7.21744 10.3033 7.20604 10.3091 7.20034 10.3204C6.71027 10.8105 6.80144 11.2892 6.90402 11.6139C6.90971 11.6311 6.91541 11.6482 6.92111 11.6652C7.32571 12.6454 7.89556 13.5685 8.76174 14.6684L8.76744 14.6741C10.3402 16.6116 11.9985 18.1217 13.8278 19.2785C14.0614 19.4267 14.3007 19.5463 14.5287 19.6603C14.7338 19.7629 14.9275 19.8597 15.0928 19.9623C15.1156 19.9737 15.1384 19.9908 15.1612 20.0023C15.3549 20.0991 15.5373 20.1447 15.7254 20.1447C16.1984 20.1447 16.4947 19.8484 16.5915 19.7514L18.5404 17.8026C18.7341 17.6088 19.0419 17.3752 19.4009 17.3752C19.7543 17.3752 20.0448 17.5974 20.2215 17.7911C20.2271 17.7969 20.2271 17.7969 20.2329 17.8026L23.3727 20.9424C23.9597 21.5237 23.9597 22.122 23.3785 22.7262Z" fill="black"/>
<path d="M14.5912 6.42235C16.0843 6.67308 17.4405 7.3797 18.5233 8.46242C19.606 9.54515 20.3069 10.9014 20.5633 12.3944C20.626 12.7706 20.9508 13.0327 21.3212 13.0327C21.3668 13.0327 21.4067 13.027 21.4523 13.0213C21.874 12.9529 22.1532 12.554 22.0848 12.1323C21.777 10.3258 20.9223 8.67897 19.6173 7.374C18.3124 6.06904 16.6655 5.21426 14.8591 4.90654C14.4374 4.83815 14.0442 5.11738 13.9701 5.53338C13.896 5.94937 14.1695 6.35396 14.5912 6.42235Z" fill="black"/>
<path d="M26.9686 11.9103C26.4614 8.93563 25.0596 6.22883 22.9055 4.07478C20.7515 1.92074 18.0447 0.518898 15.0701 0.0117284C14.6541 -0.0623525 14.2609 0.222574 14.1868 0.638567C14.1184 1.06026 14.3976 1.45346 14.8193 1.52753C17.4748 1.97772 19.8967 3.2371 21.8228 5.1575C23.749 7.08361 25.0026 9.50548 25.4527 12.161C25.5154 12.5371 25.8403 12.7993 26.2107 12.7993C26.2563 12.7993 26.2962 12.7936 26.3417 12.7879C26.7577 12.7252 27.0427 12.3263 26.9686 11.9103Z" fill="black"/>
</g>
</g>
<defs>
<clipPath id="clip0_16_1543">
<rect width="27" height="27" fill="white"/>
</clipPath>
</defs>
</svg>
