<svg xmlns="http://www.w3.org/2000/svg" width="66" height="60" viewBox="0 0 33 30" fill="none">
<g clip-path="url(#clip0_6_7)">

<path d="M30.3959 0.00497611C29.9719 0.0249761 29.5724 0.150476 29.2173 0.290976H29.2124C28.8524 0.436476 27.1413 1.16898 24.5426 2.27764C21.9438 3.39131 18.5709 4.83631 15.2225 6.27114C8.53573 9.13581 1.96246 11.9553 1.96246 11.9553L2.04133 11.9251C2.04133 11.9251 1.58758 12.0756 1.1142 12.4068C0.87264 12.5673 0.60633 12.7881 0.374505 13.1343C0.14268 13.4805 -0.044595 14.0123 0.024375 14.5591C0.13773 15.4873 0.729585 16.0441 1.15363 16.3501C1.58263 16.6611 1.992 16.8066 1.992 16.8066H2.0019L8.16597 18.9188C8.44218 19.8218 10.0448 25.1798 10.4294 26.414C10.6563 27.1515 10.8782 27.613 11.1543 27.9641C11.2874 28.1448 11.4452 28.2953 11.6326 28.4156C11.7065 28.4608 11.7854 28.496 11.8644 28.526C11.889 28.541 11.9138 28.546 11.9433 28.5511L11.8791 28.5361C11.8989 28.5411 11.9136 28.5561 11.9285 28.5611C11.9778 28.5761 12.0123 28.5811 12.0765 28.5913C13.0528 28.8923 13.8369 28.2753 13.8369 28.2753L13.8812 28.2401L16.6706 25.6561C17.1624 25.2005 17.9046 25.1686 18.4324 25.5806L23.6204 29.6298L23.7585 29.69C25.0308 30.2568 26.3178 29.9408 26.9983 29.384C27.6837 28.8221 27.95 28.1046 27.95 28.1046L27.9944 27.9893L32.7086 3.42181C32.8417 2.81481 32.8762 2.24781 32.7284 1.69598C32.5804 1.14414 32.2007 0.627309 31.7422 0.351476C31.2785 0.0701428 30.82 -0.0150239 30.3959 0.00497611ZM30.2677 2.63881C30.2628 2.71914 30.2776 2.70898 30.2432 2.86464V2.87964L25.5733 27.1913C25.5535 27.2265 25.519 27.3016 25.4253 27.377C25.3266 27.4573 25.2478 27.5075 24.8386 27.3418L19.2706 22.9988C18.175 22.1441 16.6351 22.2108 15.6146 23.157L12.8704 25.7013L13.8172 19.5506L21.5536 12.0548C22.3165 11.3155 21.4015 10.0805 20.4936 10.6248C15.8779 13.3921 10.2125 16.9318 10.2125 16.9318L10.2075 16.9068L2.84026 14.3833V14.3783C2.83531 14.3783 2.82541 14.3733 2.82046 14.3733C2.82541 14.3733 2.8599 14.3583 2.8599 14.3583L2.89933 14.3383L2.93877 14.3233C2.93877 14.3233 9.51699 11.5038 16.2038 8.63914C19.5521 7.20431 22.9251 5.75948 25.5189 4.64564C28.1127 3.53698 30.031 2.72414 30.1394 2.67898C30.243 2.63881 30.1937 2.63881 30.2677 2.63881Z" fill="#000"></path>
</g>
<defs>
<linearGradient id="paint0_linear_6_7" x1="16.4174" y1="0.00219727" x2="16.4174" y2="29.9891" gradientUnits="userSpaceOnUse">
<stop stop-color="#C7EAFF"></stop>
<stop offset="1" stop-color="#1487C9"></stop>
</linearGradient>
<clipPath id="clip0_6_7">
<rect width="33" height="30" fill="white"></rect>
</clipPath>
</defs>
</svg>