<?xml version="1.0" standalone="no"?>
<!DOCTYPE svg PUBLIC "-//W3C//DTD SVG 20010904//EN"
 "http://www.w3.org/TR/2001/REC-SVG-20010904/DTD/svg10.dtd">
<svg version="1.0" xmlns="http://www.w3.org/2000/svg"
 width="1650.000000pt" height="1928.000000pt" viewBox="0 0 1650.000000 1928.000000"
 preserveAspectRatio="xMidYMid meet">

<g transform="translate(0.000000,1928.000000) scale(0.100000,-0.100000)"
fill="#000000" stroke="none">
<path d="M1085 19264 c-487 -88 -895 -451 -1034 -920 -51 -174 -51 -164 -51
-1374 0 -1210 0 -1200 51 -1374 123 -414 471 -762 885 -885 174 -51 164 -51
1374 -51 1210 0 1200 0 1374 51 414 123 762 471 885 885 51 174 51 164 51
1374 0 1210 0 1200 -51 1374 -123 414 -471 762 -885 885 -175 52 -162 51
-1383 50 -943 -1 -1150 -3 -1216 -15z m2082 -668 c396 -92 685 -384 770 -779
16 -74 18 -154 18 -847 0 -693 -2 -773 -18 -847 -86 -399 -381 -694 -780 -780
-74 -16 -154 -18 -847 -18 -693 0 -773 2 -847 18 -399 86 -694 381 -780 780
-16 74 -18 154 -18 847 0 693 2 773 18 847 94 437 447 755 882 793 50 4 414 7
810 5 634 -2 729 -4 792 -19z"/>
<path d="M1790 17937 c-225 -68 -388 -235 -450 -461 -20 -71 -21 -96 -18 -528
3 -437 4 -455 25 -518 68 -198 233 -361 428 -423 68 -21 82 -22 535 -22 453 0
467 1 535 22 197 63 365 231 428 428 21 68 22 82 22 535 0 453 -1 467 -22 535
-62 194 -226 361 -423 428 -63 21 -79 22 -525 24 -452 2 -461 2 -535 -20z"/>
<path d="M5499 19267 c-84 -32 -148 -88 -191 -170 -20 -36 -23 -57 -23 -147 0
-97 2 -109 29 -158 34 -60 85 -111 148 -144 37 -20 58 -23 148 -23 97 0 109 2
158 29 60 34 111 85 144 148 20 37 23 58 23 148 0 90 -3 111 -23 148 -34 63
-84 114 -144 147 -45 25 -66 30 -143 32 -58 2 -103 -2 -126 -10z"/>
<path d="M9459 19267 c-84 -32 -149 -89 -189 -167 -12 -23 -26 -84 -34 -143
-15 -115 -38 -171 -95 -230 -56 -60 -120 -87 -239 -103 -152 -20 -233 -71
-294 -186 -20 -37 -23 -58 -23 -148 0 -90 3 -111 23 -148 61 -115 142 -166
294 -186 164 -21 247 -76 305 -201 l28 -60 5 -415 c5 -409 5 -416 28 -458 33
-63 84 -114 144 -148 49 -27 61 -29 158 -29 97 0 109 2 158 29 109 61 156 139
176 289 16 118 43 182 103 238 59 57 115 80 230 95 150 20 228 67 289 176 27
49 29 61 29 158 0 97 -2 109 -29 158 -61 109 -139 156 -289 176 -162 21 -246
77 -304 201 l-28 60 -5 415 c-5 409 -5 416 -28 458 -34 63 -84 114 -144 147
-45 25 -66 30 -143 32 -58 2 -103 -2 -126 -10z"/>
<path d="M10779 19267 c-84 -32 -148 -88 -191 -170 -23 -42 -23 -45 -23 -477
0 -434 0 -435 23 -478 33 -63 84 -114 144 -148 49 -27 61 -29 158 -29 97 0
109 2 158 29 60 34 111 85 144 148 23 43 23 44 23 478 0 434 0 435 -23 478
-34 63 -84 114 -144 147 -45 25 -66 30 -143 32 -58 2 -103 -2 -126 -10z"/>
<path d="M12965 19264 c-487 -88 -895 -451 -1034 -920 -51 -174 -51 -164 -51
-1374 0 -1210 0 -1200 51 -1374 123 -414 471 -762 885 -885 174 -51 164 -51
1374 -51 1210 0 1200 0 1374 51 414 123 762 471 885 885 51 174 51 164 51
1374 0 1210 0 1200 -51 1374 -123 414 -471 762 -885 885 -175 52 -162 51
-1383 50 -943 -1 -1150 -3 -1216 -15z m2082 -668 c396 -92 685 -384 770 -779
16 -74 18 -154 18 -847 0 -693 -2 -773 -18 -847 -86 -399 -381 -694 -780 -780
-74 -16 -154 -18 -847 -18 -693 0 -773 2 -847 18 -399 86 -694 381 -780 780
-16 74 -18 154 -18 847 0 693 2 773 18 847 94 437 447 755 882 793 50 4 414 7
810 5 634 -2 729 -4 792 -19z"/>
<path d="M13670 17937 c-225 -68 -388 -235 -450 -461 -20 -71 -21 -96 -18
-528 3 -437 4 -455 25 -518 68 -198 233 -361 428 -423 68 -21 82 -22 535 -22
453 0 467 1 535 22 197 63 365 231 428 428 21 68 22 82 22 535 0 453 -1 467
-22 535 -62 194 -226 361 -423 428 -63 21 -79 22 -525 24 -452 2 -461 2 -535
-20z"/>
<path d="M6819 18606 c-83 -30 -147 -86 -191 -169 -23 -42 -23 -45 -23 -477 0
-434 0 -435 23 -478 61 -115 142 -166 294 -186 119 -16 183 -43 239 -103 57
-59 80 -115 95 -231 16 -118 44 -181 105 -237 60 -54 111 -74 222 -89 115 -15
171 -38 230 -95 60 -56 87 -120 103 -238 20 -150 67 -228 176 -289 l53 -29
435 0 435 0 53 29 c60 34 111 85 144 148 20 37 23 58 23 148 0 97 -2 109 -29
158 -61 109 -139 156 -289 176 -162 21 -246 77 -304 201 l-28 60 -5 415 -5
415 -29 53 c-61 109 -139 156 -289 176 -115 15 -171 38 -230 95 -60 56 -87
120 -103 239 -20 152 -71 233 -186 294 -43 23 -46 23 -463 25 -327 2 -428 0
-456 -11z"/>
<path d="M5499 17947 c-84 -32 -148 -88 -191 -170 -20 -36 -23 -57 -23 -147 0
-97 2 -109 29 -158 34 -60 85 -111 148 -144 37 -20 58 -23 148 -23 97 0 109 2
158 29 60 34 111 85 144 148 20 37 23 58 23 148 0 90 -3 111 -23 148 -34 63
-84 114 -144 147 -45 25 -66 30 -143 32 -58 2 -103 -2 -126 -10z"/>
<path d="M6159 17287 c-84 -32 -148 -88 -191 -170 -20 -36 -23 -57 -23 -147 0
-97 2 -109 29 -158 34 -60 85 -111 148 -144 37 -20 58 -23 148 -23 97 0 109 2
158 29 60 34 111 85 144 148 20 37 23 58 23 148 0 90 -3 111 -23 148 -34 63
-84 114 -144 147 -45 25 -66 30 -143 32 -58 2 -103 -2 -126 -10z"/>
<path d="M10779 17287 c-84 -32 -148 -88 -191 -170 -20 -36 -23 -57 -23 -147
0 -97 2 -109 29 -158 34 -60 85 -111 148 -144 37 -20 58 -23 148 -23 97 0 109
2 158 29 60 34 111 85 144 148 20 37 23 58 23 148 0 90 -3 111 -23 148 -34 63
-84 114 -144 147 -45 25 -66 30 -143 32 -58 2 -103 -2 -126 -10z"/>
<path d="M6819 16627 c-84 -32 -149 -89 -189 -167 -12 -23 -26 -84 -34 -143
-15 -115 -38 -171 -95 -230 -56 -60 -120 -87 -239 -103 -152 -20 -233 -71
-294 -186 -20 -37 -23 -58 -23 -148 0 -90 3 -111 23 -148 61 -115 142 -166
294 -186 119 -16 183 -43 239 -103 57 -59 80 -115 95 -231 20 -152 71 -233
186 -294 37 -20 58 -23 148 -23 90 0 111 3 148 23 115 61 166 142 186 294 15
116 38 172 95 231 56 60 120 87 239 103 152 20 233 71 294 186 20 37 23 58 23
148 0 97 -2 109 -29 158 -61 109 -139 156 -289 176 -118 16 -182 43 -238 103
-57 59 -80 115 -95 230 -20 150 -68 229 -176 288 -45 25 -66 30 -143 32 -58 2
-103 -2 -126 -10z"/>
<path d="M9459 15966 c-83 -30 -147 -86 -191 -169 l-23 -42 0 -1425 0 -1425
23 -43 c33 -63 84 -114 144 -148 l53 -29 435 0 435 0 53 29 c60 34 111 85 144
148 20 37 23 58 23 148 0 90 -3 111 -23 148 -61 115 -142 166 -294 186 -161
21 -247 77 -302 196 -53 114 -27 261 62 353 58 60 121 87 239 103 150 20 228
67 289 176 27 49 29 61 29 158 0 97 -2 109 -29 158 -61 109 -139 156 -289 176
-160 21 -246 77 -301 196 -53 114 -27 261 62 353 58 60 121 87 239 103 150 20
228 67 289 176 27 49 29 61 29 158 0 97 -2 109 -29 158 -34 60 -85 111 -148
144 -43 23 -46 23 -463 25 -327 2 -428 0 -456 -11z"/>
<path d="M5499 15307 c-84 -32 -148 -88 -191 -170 -23 -42 -23 -45 -23 -477 0
-434 0 -435 23 -478 33 -63 84 -114 144 -148 l53 -29 435 0 435 0 53 29 c60
34 111 85 144 148 20 37 23 58 23 148 0 97 -2 109 -29 158 -61 109 -139 156
-289 176 -118 16 -182 43 -238 103 -57 59 -80 115 -95 230 -20 150 -68 229
-176 288 -45 25 -66 30 -143 32 -58 2 -103 -2 -126 -10z"/>
<path d="M8139 15307 c-84 -32 -148 -88 -191 -170 -23 -41 -23 -50 -28 -457
l-5 -415 -28 -60 c-58 -125 -141 -180 -305 -201 -118 -16 -181 -44 -237 -105
-54 -60 -74 -111 -89 -222 -21 -162 -77 -246 -201 -304 l-60 -28 -1075 -5
-1075 -5 -43 -23 c-115 -61 -166 -142 -186 -294 -16 -119 -43 -183 -103 -239
-59 -57 -115 -80 -231 -95 -152 -20 -233 -71 -294 -186 -20 -37 -23 -58 -23
-148 0 -97 2 -109 29 -158 61 -109 139 -156 289 -176 118 -16 182 -43 238
-103 57 -59 80 -115 95 -231 20 -152 71 -233 186 -294 37 -20 58 -23 148 -23
97 0 109 2 158 29 109 61 156 139 176 289 16 118 43 182 103 238 59 57 115 80
231 95 118 16 181 44 237 105 54 60 74 111 89 222 21 162 77 246 201 304 l60
28 1075 5 1075 5 53 29 c60 34 111 85 144 148 l23 43 0 1095 0 1095 -23 43
c-34 63 -84 114 -144 147 -45 25 -66 30 -143 32 -58 2 -103 -2 -126 -10z"/>
<path d="M10779 15307 c-84 -32 -148 -88 -191 -170 -20 -36 -23 -57 -23 -147
0 -97 2 -109 29 -158 34 -60 85 -111 148 -144 37 -20 58 -23 148 -23 97 0 109
2 158 29 60 34 111 85 144 148 20 37 23 58 23 148 0 90 -3 111 -23 148 -34 63
-84 114 -144 147 -45 25 -66 30 -143 32 -58 2 -103 -2 -126 -10z"/>
<path d="M219 13987 c-84 -32 -148 -88 -191 -170 l-23 -42 0 -1425 0 -1425 23
-43 c61 -115 142 -166 294 -186 119 -16 182 -43 240 -103 119 -123 119 -323 0
-446 -58 -60 -121 -87 -240 -103 -152 -20 -233 -71 -294 -186 -20 -37 -23 -58
-23 -148 0 -90 3 -111 23 -148 33 -63 84 -114 144 -148 l53 -29 435 0 435 0
53 29 c109 61 156 139 176 289 21 160 77 246 196 301 114 53 261 27 353 -62
60 -58 87 -121 103 -239 20 -150 67 -228 176 -289 l53 -29 1425 0 1425 0 53
29 c60 34 111 85 144 148 20 37 23 58 23 148 0 97 -2 109 -29 158 -34 60 -85
111 -148 144 l-43 23 -1075 5 -1075 5 -60 28 c-124 58 -180 142 -201 304 -15
111 -35 162 -89 222 -56 61 -119 89 -237 105 -164 21 -247 76 -305 201 l-28
60 0 395 0 395 28 60 c36 78 88 130 162 166 117 57 263 32 358 -59 60 -58 87
-121 103 -239 20 -150 67 -228 176 -289 49 -27 61 -29 158 -29 97 0 109 2 158
29 60 34 111 85 144 148 l23 43 0 765 0 765 -29 53 c-34 60 -85 111 -148 144
-37 20 -58 23 -148 23 -97 0 -109 -2 -158 -29 -109 -61 -156 -139 -176 -289
-21 -162 -77 -246 -201 -304 l-60 -28 -725 0 -725 0 -60 28 c-78 36 -137 95
-172 171 l-28 61 -5 415 c-5 409 -5 416 -28 458 -34 63 -84 114 -144 147 -45
25 -66 30 -143 32 -58 2 -103 -2 -126 -10z m901 -2003 c73 -34 126 -86 161
-159 24 -50 29 -73 29 -135 0 -62 -5 -85 -29 -135 -57 -119 -161 -185 -291
-185 -130 0 -234 66 -291 185 -24 50 -29 73 -29 135 0 130 66 234 185 291 82
40 184 41 265 3z"/>
<path d="M1539 13987 c-84 -32 -148 -88 -191 -170 -20 -36 -23 -57 -23 -147 0
-97 2 -109 29 -158 34 -60 85 -111 148 -144 37 -20 58 -23 148 -23 97 0 109 2
158 29 60 34 111 85 144 148 20 37 23 58 23 148 0 90 -3 111 -23 148 -34 63
-84 114 -144 147 -45 25 -66 30 -143 32 -58 2 -103 -2 -126 -10z"/>
<path d="M3519 13986 c-83 -30 -147 -86 -191 -169 -20 -36 -23 -57 -23 -147 0
-97 2 -109 29 -158 34 -60 85 -111 148 -144 43 -23 44 -23 478 -23 434 0 435
0 478 23 63 33 114 84 148 144 27 49 29 61 29 158 0 97 -2 109 -29 158 -34 60
-85 111 -148 144 -43 23 -46 23 -463 25 -327 2 -428 0 -456 -11z"/>
<path d="M11439 13986 c-83 -30 -147 -86 -191 -169 -20 -36 -23 -57 -23 -147
0 -97 2 -109 29 -158 61 -109 139 -156 289 -176 115 -15 171 -38 230 -95 60
-56 87 -120 103 -238 15 -111 35 -162 89 -222 56 -61 119 -89 237 -105 116
-15 172 -38 231 -95 60 -56 87 -120 103 -239 20 -152 71 -233 186 -294 37 -20
58 -23 148 -23 90 0 111 3 148 23 115 61 166 142 186 294 16 119 43 183 103
239 59 57 115 80 231 95 152 20 233 71 294 186 20 37 23 58 23 148 0 90 -3
111 -23 148 -33 63 -84 114 -144 148 l-53 29 -415 5 -415 5 -60 28 c-125 58
-180 141 -201 305 -20 152 -71 233 -186 294 -43 23 -46 23 -463 25 -327 2
-428 0 -456 -11z"/>
<path d="M14739 13987 c-84 -32 -148 -88 -191 -170 -20 -36 -23 -57 -23 -147
0 -97 2 -109 29 -158 34 -60 85 -111 148 -144 37 -20 58 -23 148 -23 97 0 109
2 158 29 60 34 111 85 144 148 20 37 23 58 23 148 0 90 -3 111 -23 148 -34 63
-84 114 -144 147 -45 25 -66 30 -143 32 -58 2 -103 -2 -126 -10z"/>
<path d="M16059 13987 c-84 -32 -148 -88 -191 -170 -20 -36 -23 -57 -23 -147
0 -97 2 -109 29 -158 34 -60 85 -111 148 -144 37 -20 58 -23 148 -23 97 0 109
2 158 29 60 34 111 85 144 148 20 37 23 58 23 148 0 90 -3 111 -23 148 -34 63
-84 114 -144 147 -45 25 -66 30 -143 32 -58 2 -103 -2 -126 -10z"/>
<path d="M15399 13327 c-84 -32 -148 -88 -191 -170 l-23 -42 -5 -745 -5 -745
-28 -60 c-36 -78 -95 -137 -171 -172 l-61 -28 -395 0 -395 0 -60 28 c-125 58
-180 141 -201 305 -20 152 -71 233 -186 294 -37 20 -58 23 -148 23 -97 0 -109
-2 -158 -29 -60 -34 -111 -85 -144 -148 -23 -42 -23 -49 -28 -458 l-5 -415
-28 -60 c-58 -125 -141 -180 -305 -201 -152 -20 -233 -71 -294 -186 -20 -37
-23 -58 -23 -148 0 -97 2 -109 29 -158 34 -60 85 -111 148 -144 43 -23 44 -23
478 -23 l435 0 53 29 c109 61 156 139 176 289 16 118 43 181 103 239 95 91
241 116 358 59 74 -36 126 -88 162 -166 l28 -60 5 -415 c5 -409 5 -416 28
-458 33 -63 84 -114 144 -148 l53 -29 415 -5 415 -5 60 -28 c78 -36 130 -88
166 -162 57 -117 32 -263 -59 -358 -58 -60 -121 -87 -240 -103 -118 -16 -181
-44 -237 -105 -54 -60 -74 -111 -89 -222 -16 -118 -43 -181 -103 -239 -95 -91
-241 -116 -358 -59 -74 36 -126 88 -162 166 l-28 60 -5 415 c-5 409 -5 416
-28 458 -33 63 -84 114 -144 148 l-53 29 -765 0 -765 0 -53 -29 c-109 -61
-156 -139 -176 -289 -16 -118 -43 -181 -103 -239 -123 -119 -323 -119 -446 0
-60 58 -87 121 -103 240 -16 118 -44 181 -105 237 -60 54 -111 74 -222 89
-160 21 -246 77 -301 196 -53 114 -27 261 62 353 58 60 121 87 240 103 152 20
233 71 294 186 20 37 23 58 23 148 0 97 -2 109 -29 158 -34 60 -85 111 -148
144 -43 23 -44 23 -478 23 l-435 0 -53 -29 c-60 -34 -111 -85 -144 -148 -23
-42 -23 -49 -28 -458 l-5 -415 -28 -60 c-36 -78 -95 -137 -171 -172 l-61 -28
-2065 -5 -2065 -5 -53 -29 c-109 -61 -156 -139 -176 -289 -15 -115 -38 -171
-95 -230 -56 -60 -120 -87 -239 -103 -152 -20 -233 -71 -294 -186 -20 -37 -23
-58 -23 -148 0 -90 3 -111 23 -148 33 -63 84 -114 144 -148 l53 -29 1095 0
1095 0 53 29 c109 61 156 139 176 289 16 118 43 181 103 239 123 119 323 119
446 0 60 -58 87 -121 103 -239 20 -150 67 -228 176 -289 l53 -29 415 -5 415
-5 60 -28 c125 -58 180 -141 201 -305 16 -118 44 -181 105 -237 60 -54 111
-74 222 -89 118 -16 181 -43 239 -103 119 -123 119 -323 0 -446 -58 -60 -121
-87 -240 -103 -152 -20 -233 -71 -294 -186 -23 -42 -23 -49 -28 -458 l-5 -415
-28 -60 c-58 -124 -142 -180 -304 -201 -150 -20 -228 -67 -289 -176 l-29 -53
0 -435 0 -435 29 -53 c34 -60 85 -111 148 -144 37 -20 58 -23 148 -23 97 0
109 2 158 29 109 61 156 139 176 289 16 118 43 182 103 238 59 57 115 80 230
95 111 15 162 35 222 89 61 56 89 119 105 237 21 164 76 247 201 305 l60 28
1715 0 1715 0 60 -28 c125 -58 180 -141 201 -305 20 -152 71 -233 186 -294 37
-20 58 -23 148 -23 90 0 111 3 148 23 115 61 166 142 186 294 16 119 43 183
103 239 59 57 115 80 230 95 150 20 228 67 289 176 l29 53 0 435 0 435 -29 53
c-34 60 -85 111 -148 144 -43 23 -44 23 -478 23 -434 0 -435 0 -478 -23 -115
-61 -166 -142 -186 -294 -16 -119 -43 -182 -103 -240 -95 -91 -241 -116 -358
-59 -74 36 -126 88 -162 166 l-28 60 0 395 0 395 28 60 c36 78 95 137 171 172
l61 28 745 5 745 5 43 23 c115 61 166 142 186 294 16 119 43 183 103 239 59
57 115 80 231 95 152 20 233 71 294 186 l23 43 0 1095 0 1095 -23 43 c-33 63
-84 114 -144 148 -49 27 -61 29 -158 29 -97 0 -109 -2 -158 -29 -109 -61 -156
-139 -176 -289 -16 -118 -43 -181 -103 -239 -95 -91 -241 -116 -358 -59 -119
57 -185 161 -185 291 0 59 6 86 26 130 55 119 141 175 302 196 152 20 233 71
294 186 l23 43 0 1095 0 1095 -23 43 c-34 63 -84 114 -144 147 -45 25 -66 30
-143 32 -58 2 -103 -2 -126 -10z m-2403 -5300 c76 -35 135 -94 171 -172 l28
-60 0 -725 0 -725 -28 -60 c-36 -78 -95 -137 -171 -172 l-61 -28 -725 0 -725
0 -61 28 c-76 35 -135 94 -171 172 l-28 60 0 725 0 725 28 60 c50 107 143 179
252 195 27 5 361 7 740 7 l690 -2 61 -28z"/>
<path d="M12099 7387 c-84 -32 -148 -88 -191 -170 -20 -36 -23 -57 -23 -147 0
-97 2 -109 29 -158 34 -60 85 -111 148 -144 37 -20 58 -23 148 -23 97 0 109 2
158 29 60 34 111 85 144 148 20 37 23 58 23 148 0 90 -3 111 -23 148 -34 63
-84 114 -144 147 -45 25 -66 30 -143 32 -58 2 -103 -2 -126 -10z"/>
<path d="M11439 12667 c-84 -32 -148 -88 -191 -170 -20 -36 -23 -57 -23 -147
0 -97 2 -109 29 -158 34 -60 85 -111 148 -144 37 -20 58 -23 148 -23 97 0 109
2 158 29 60 34 111 85 144 148 20 37 23 58 23 148 0 90 -3 111 -23 148 -34 63
-84 114 -144 147 -45 25 -66 30 -143 32 -58 2 -103 -2 -126 -10z"/>
<path d="M14079 12667 c-84 -32 -148 -88 -191 -170 -20 -36 -23 -57 -23 -147
0 -97 2 -109 29 -158 34 -60 85 -111 148 -144 37 -20 58 -23 148 -23 97 0 109
2 158 29 60 34 111 85 144 148 20 37 23 58 23 148 0 90 -3 111 -23 148 -34 63
-84 114 -144 147 -45 25 -66 30 -143 32 -58 2 -103 -2 -126 -10z"/>
<path d="M8115 12474 c-649 -70 -1161 -534 -1287 -1166 -17 -90 -22 -147 -22
-278 0 -258 45 -448 159 -668 207 -398 578 -672 1025 -758 131 -25 389 -25
520 0 295 57 557 194 764 402 208 207 345 469 402 764 25 131 25 389 0 520
-113 590 -563 1047 -1143 1160 -105 20 -330 33 -418 24z m773 -890 c39 -27 30
-131 -58 -669 -82 -502 -98 -565 -151 -594 -49 -27 -89 -8 -341 161 -273 184
-298 204 -298 244 0 30 30 61 343 359 110 106 157 157 157 173 0 51 -47 27
-355 -179 -165 -110 -322 -212 -350 -227 -69 -36 -129 -33 -285 12 -140 41
-184 63 -188 92 -6 40 -6 40 643 319 547 234 778 324 835 325 14 0 36 -7 48
-16z"/>
<path d="M10119 12007 c-84 -32 -148 -88 -191 -170 -23 -42 -23 -45 -23 -477
0 -434 0 -435 23 -478 33 -63 84 -114 144 -148 49 -27 61 -29 158 -29 97 0
109 2 158 29 60 34 111 85 144 148 23 43 23 44 23 478 0 434 0 435 -23 478
-34 63 -84 114 -144 147 -45 25 -66 30 -143 32 -58 2 -103 -2 -126 -10z"/>
<path d="M12099 12007 c-84 -32 -148 -88 -191 -170 -20 -36 -23 -57 -23 -147
0 -97 2 -109 29 -158 34 -60 85 -111 148 -144 37 -20 58 -23 148 -23 97 0 109
2 158 29 60 34 111 85 144 148 20 37 23 58 23 148 0 90 -3 111 -23 148 -34 63
-84 114 -144 147 -45 25 -66 30 -143 32 -58 2 -103 -2 -126 -10z"/>
<path d="M4179 11347 c-84 -32 -148 -88 -191 -170 -20 -36 -23 -57 -23 -147 0
-97 2 -109 29 -158 34 -60 85 -111 148 -144 37 -20 58 -23 148 -23 97 0 109 2
158 29 60 34 111 85 144 148 20 37 23 58 23 148 0 90 -3 111 -23 148 -34 63
-84 114 -144 147 -45 25 -66 30 -143 32 -58 2 -103 -2 -126 -10z"/>
<path d="M6159 11347 c-84 -32 -148 -88 -191 -170 -23 -42 -23 -45 -23 -477 0
-434 0 -435 23 -478 33 -63 84 -114 144 -148 49 -27 61 -29 158 -29 97 0 109
2 158 29 60 34 111 85 144 148 23 43 23 44 23 478 0 434 0 435 -23 478 -34 63
-84 114 -144 147 -45 25 -66 30 -143 32 -58 2 -103 -2 -126 -10z"/>
<path d="M1539 8706 c-83 -30 -147 -86 -191 -169 -20 -36 -23 -57 -23 -147 0
-97 2 -109 29 -158 34 -60 85 -111 148 -144 43 -23 44 -23 478 -23 434 0 435
0 478 23 63 33 114 84 148 144 27 49 29 61 29 158 0 97 -2 109 -29 158 -34 60
-85 111 -148 144 -43 23 -46 23 -463 25 -327 2 -428 0 -456 -11z"/>
<path d="M4179 8707 c-84 -32 -148 -88 -191 -170 -20 -36 -23 -57 -23 -147 0
-97 2 -109 29 -158 34 -60 85 -111 148 -144 37 -20 58 -23 148 -23 97 0 109 2
158 29 60 34 111 85 144 148 20 37 23 58 23 148 0 90 -3 111 -23 148 -34 63
-84 114 -144 147 -45 25 -66 30 -143 32 -58 2 -103 -2 -126 -10z"/>
<path d="M1085 7384 c-487 -88 -895 -451 -1034 -920 -51 -174 -51 -164 -51
-1374 0 -1210 0 -1200 51 -1374 123 -414 471 -762 885 -885 174 -51 164 -51
1374 -51 1210 0 1200 0 1374 51 414 123 762 471 885 885 51 174 51 164 51
1374 0 1210 0 1200 -51 1374 -123 414 -471 762 -885 885 -175 52 -162 51
-1383 50 -943 -1 -1150 -3 -1216 -15z m2082 -668 c396 -92 685 -384 770 -779
16 -74 18 -154 18 -847 0 -693 -2 -773 -18 -847 -86 -399 -381 -694 -780 -780
-74 -16 -154 -18 -847 -18 -693 0 -773 2 -847 18 -399 86 -694 381 -780 780
-16 74 -18 154 -18 847 0 693 2 773 18 847 94 437 447 755 882 793 50 4 414 7
810 5 634 -2 729 -4 792 -19z"/>
<path d="M1790 6057 c-225 -68 -388 -235 -450 -461 -20 -71 -21 -96 -18 -528
3 -437 4 -455 25 -518 68 -198 233 -361 428 -423 68 -21 82 -22 535 -22 453 0
467 1 535 22 197 63 365 231 428 428 21 68 22 82 22 535 0 453 -1 467 -22 535
-62 194 -226 361 -423 428 -63 21 -79 22 -525 24 -452 2 -461 2 -535 -20z"/>
<path d="M6159 7387 c-84 -32 -148 -88 -191 -170 -20 -36 -23 -57 -23 -147 0
-97 2 -109 29 -158 34 -60 85 -111 148 -144 37 -20 58 -23 148 -23 97 0 109 2
158 29 60 34 111 85 144 148 20 37 23 58 23 148 0 90 -3 111 -23 148 -34 63
-84 114 -144 147 -45 25 -66 30 -143 32 -58 2 -103 -2 -126 -10z"/>
<path d="M7479 7386 c-83 -30 -149 -88 -189 -166 -12 -23 -26 -84 -34 -143
-15 -115 -38 -171 -95 -230 -56 -60 -120 -87 -239 -103 -152 -20 -233 -71
-294 -186 -23 -42 -23 -49 -28 -458 l-5 -415 -28 -60 c-58 -124 -142 -180
-304 -201 -150 -20 -228 -67 -289 -176 -27 -49 -29 -61 -29 -158 0 -90 3 -111
23 -148 61 -115 142 -166 294 -186 119 -16 183 -43 239 -103 57 -59 80 -115
95 -230 20 -150 67 -228 176 -289 49 -27 61 -29 158 -29 97 0 109 2 158 29
109 61 156 139 176 289 15 115 38 171 95 230 56 60 120 87 239 103 152 20 233
71 294 186 20 37 23 58 23 148 0 97 -2 109 -29 158 -61 109 -139 156 -289 176
-160 21 -246 77 -301 196 -53 114 -27 261 62 353 58 60 121 87 240 103 118 16
181 44 237 105 54 60 74 111 89 222 21 160 77 246 196 301 114 53 261 27 353
-62 60 -58 87 -121 103 -240 20 -152 71 -233 186 -294 37 -20 58 -23 148 -23
97 0 109 2 158 29 60 34 111 85 144 148 23 43 23 44 23 478 l0 435 -29 53
c-34 60 -85 111 -148 144 l-43 23 -750 2 c-596 2 -757 0 -786 -11z"/>
<path d="M16059 7387 c-84 -32 -148 -88 -191 -170 -20 -36 -23 -57 -23 -147 0
-97 2 -109 29 -158 34 -60 85 -111 148 -144 37 -20 58 -23 148 -23 97 0 109 2
158 29 60 34 111 85 144 148 20 37 23 58 23 148 0 90 -3 111 -23 148 -34 63
-84 114 -144 147 -45 25 -66 30 -143 32 -58 2 -103 -2 -126 -10z"/>
<path d="M5499 6727 c-84 -32 -148 -88 -191 -170 -20 -36 -23 -57 -23 -147 0
-97 2 -109 29 -158 34 -60 85 -111 148 -144 37 -20 58 -23 148 -23 97 0 109 2
158 29 60 34 111 85 144 148 20 37 23 58 23 148 0 90 -3 111 -23 148 -34 63
-84 114 -144 147 -45 25 -66 30 -143 32 -58 2 -103 -2 -126 -10z"/>
<path d="M16059 5407 c-84 -32 -148 -88 -191 -170 -20 -36 -23 -57 -23 -147 0
-97 2 -109 29 -158 34 -60 85 -111 148 -144 37 -20 58 -23 148 -23 97 0 109 2
158 29 60 34 111 85 144 148 20 37 23 58 23 148 0 90 -3 111 -23 148 -34 63
-84 114 -144 147 -45 25 -66 30 -143 32 -58 2 -103 -2 -126 -10z"/>
<path d="M5499 4747 c-84 -32 -148 -88 -191 -170 -20 -36 -23 -57 -23 -147 0
-97 2 -109 29 -158 34 -60 85 -111 148 -144 37 -20 58 -23 148 -23 97 0 109 2
158 29 60 34 111 85 144 148 20 37 23 58 23 148 0 90 -3 111 -23 148 -34 63
-84 114 -144 147 -45 25 -66 30 -143 32 -58 2 -103 -2 -126 -10z"/>
<path d="M14079 4747 c-84 -32 -148 -88 -191 -170 -23 -42 -23 -45 -23 -477 0
-434 0 -435 23 -478 61 -115 142 -166 294 -186 119 -16 183 -43 239 -103 57
-59 80 -115 95 -231 20 -152 71 -233 186 -294 37 -20 58 -23 148 -23 90 0 111
3 148 23 63 33 114 84 148 144 l29 53 0 435 0 435 -29 53 c-61 109 -139 156
-289 176 -118 16 -182 43 -238 103 -57 59 -80 115 -95 230 -20 150 -68 229
-176 288 -45 25 -66 30 -143 32 -58 2 -103 -2 -126 -10z"/>
<path d="M6159 4087 c-84 -32 -149 -89 -189 -167 -12 -23 -26 -84 -34 -143
-15 -115 -38 -171 -95 -230 -56 -60 -120 -87 -239 -103 -152 -20 -233 -71
-294 -186 -20 -37 -23 -58 -23 -148 0 -90 3 -111 23 -148 33 -63 84 -114 144
-148 l53 -29 765 0 765 0 53 29 c60 34 111 85 144 148 20 37 23 58 23 148 0
97 -2 109 -29 158 -61 109 -139 156 -289 176 -118 16 -182 43 -238 103 -57 59
-80 115 -95 230 -20 150 -68 229 -176 288 -45 25 -66 30 -143 32 -58 2 -103
-2 -126 -10z"/>
<path d="M8799 4087 c-84 -32 -149 -89 -189 -167 -12 -23 -26 -84 -34 -143
-15 -115 -38 -171 -95 -230 -56 -60 -120 -87 -239 -103 -152 -20 -233 -71
-294 -186 -20 -37 -23 -58 -23 -148 0 -90 3 -111 23 -148 33 -63 84 -114 144
-148 l53 -29 765 0 765 0 53 29 c60 34 111 85 144 148 20 37 23 58 23 148 0
97 -2 109 -29 158 -61 109 -139 156 -289 176 -118 16 -182 43 -238 103 -57 59
-80 115 -95 230 -20 150 -68 229 -176 288 -45 25 -66 30 -143 32 -58 2 -103
-2 -126 -10z"/>
<path d="M10779 4087 c-84 -32 -148 -88 -191 -170 -20 -36 -23 -57 -23 -147 0
-97 2 -109 29 -158 34 -60 85 -111 148 -144 37 -20 58 -23 148 -23 97 0 109 2
158 29 60 34 111 85 144 148 20 37 23 58 23 148 0 90 -3 111 -23 148 -34 63
-84 114 -144 147 -45 25 -66 30 -143 32 -58 2 -103 -2 -126 -10z"/>
<path d="M12759 4087 c-84 -32 -148 -88 -191 -170 -20 -36 -23 -57 -23 -147 0
-97 2 -109 29 -158 34 -60 85 -111 148 -144 37 -20 58 -23 148 -23 97 0 109 2
158 29 60 34 111 85 144 148 20 37 23 58 23 148 0 90 -3 111 -23 148 -34 63
-84 114 -144 147 -45 25 -66 30 -143 32 -58 2 -103 -2 -126 -10z"/>
<path d="M11439 3426 c-83 -30 -147 -86 -191 -169 -20 -36 -23 -57 -23 -147 0
-97 2 -109 29 -158 34 -60 85 -111 148 -144 43 -23 44 -23 478 -23 434 0 435
0 478 23 63 33 114 84 148 144 27 49 29 61 29 158 0 97 -2 109 -29 158 -34 60
-85 111 -148 144 -43 23 -46 23 -463 25 -327 2 -428 0 -456 -11z"/>
<path d="M13419 3427 c-84 -32 -148 -88 -191 -170 -20 -36 -23 -57 -23 -147 0
-97 2 -109 29 -158 34 -60 85 -111 148 -144 37 -20 58 -23 148 -23 97 0 109 2
158 29 60 34 111 85 144 148 20 37 23 58 23 148 0 90 -3 111 -23 148 -34 63
-84 114 -144 147 -45 25 -66 30 -143 32 -58 2 -103 -2 -126 -10z"/>
<path d="M16059 3427 c-84 -32 -148 -88 -191 -170 -20 -36 -23 -57 -23 -147 0
-97 2 -109 29 -158 34 -60 85 -111 148 -144 37 -20 58 -23 148 -23 97 0 109 2
158 29 60 34 111 85 144 148 20 37 23 58 23 148 0 90 -3 111 -23 148 -34 63
-84 114 -144 147 -45 25 -66 30 -143 32 -58 2 -103 -2 -126 -10z"/>
<path d="M9309 1645 c-240 -48 -409 -215 -475 -470 -27 -102 -27 -418 0 -525
60 -246 217 -412 443 -471 111 -29 316 -29 426 0 188 49 312 149 391 314 66
137 81 217 80 427 -1 204 -17 282 -86 419 -80 159 -231 272 -411 306 -95 18
-278 18 -368 0z m338 -220 c64 -19 140 -78 182 -141 107 -162 119 -519 24
-708 -37 -73 -104 -139 -176 -172 -57 -27 -71 -29 -182 -29 -110 0 -125 2
-180 28 -172 80 -255 270 -242 552 9 176 45 289 122 373 42 48 123 92 195 109
67 15 187 10 257 -12z"/>
<path d="M12800 1646 c-356 -75 -533 -372 -499 -840 24 -334 188 -554 468
-627 108 -29 315 -29 424 0 207 54 353 190 424 393 31 87 53 225 53 328 0 380
-152 635 -434 726 -69 23 -102 27 -226 30 -96 2 -167 -1 -210 -10z m276 -207
c217 -40 326 -217 326 -529 0 -273 -75 -432 -240 -508 -75 -34 -220 -43 -308
-18 -206 59 -304 249 -291 566 7 183 42 290 124 381 87 96 233 137 389 108z"/>
<path d="M2300 1635 c-95 -15 -228 -60 -299 -101 -185 -107 -319 -288 -378
-513 -22 -83 -26 -117 -26 -256 0 -133 3 -174 21 -240 36 -133 84 -218 176
-311 126 -127 267 -186 489 -203 170 -14 368 10 505 61 l52 19 0 86 c0 83 0
85 -22 80 -13 -3 -72 -19 -132 -36 -327 -91 -617 -43 -766 127 -97 110 -148
287 -136 473 22 354 216 587 536 645 335 60 610 -94 685 -386 13 -50 16 -94
13 -195 -5 -149 -27 -222 -83 -284 -27 -29 -40 -36 -73 -36 -26 0 -48 7 -61
19 -40 36 -44 82 -31 359 7 142 10 261 6 264 -13 13 -177 43 -271 49 -173 11
-298 -29 -392 -125 -93 -95 -128 -199 -121 -370 3 -90 8 -115 32 -168 33 -72
94 -134 164 -166 38 -18 66 -22 147 -22 122 0 171 19 245 95 l49 51 14 -34
c32 -76 131 -124 235 -114 186 16 315 199 329 466 13 241 -52 424 -203 577
-57 58 -90 81 -165 117 -52 25 -124 53 -161 61 -94 23 -274 29 -378 11z m264
-551 c19 -7 19 -22 6 -194 -11 -144 -30 -213 -71 -263 -65 -78 -182 -87 -250
-18 -48 47 -62 102 -57 211 10 185 119 289 290 275 36 -3 73 -8 82 -11z"/>
<path d="M3315 1623 c6 -17 445 -1274 487 -1396 l20 -58 130 3 130 3 251 717
c139 395 255 712 258 705 4 -7 115 -322 247 -702 132 -379 244 -698 247 -707
6 -16 22 -18 135 -18 112 0 129 2 135 18 16 40 505 1441 505 1446 0 3 -58 6
-129 6 l-129 0 -166 -497 c-91 -274 -177 -541 -190 -593 -13 -52 -27 -88 -30
-80 -3 8 -12 44 -21 80 -9 36 -93 296 -187 578 l-170 512 -252 0 -251 0 -163
-483 c-89 -265 -175 -533 -191 -596 l-28 -113 -13 53 c-6 30 -93 298 -192 597
l-179 542 -131 0 c-120 0 -130 -1 -123 -17z"/>
<path d="M6040 905 l0 -735 125 0 125 0 0 330 0 330 330 0 330 0 0 -330 0
-330 125 0 125 0 0 735 0 735 -125 0 -125 0 0 -300 0 -300 -330 0 -330 0 0
300 0 300 -125 0 -125 0 0 -735z"/>
<path d="M7570 906 l0 -736 125 0 125 0 0 295 0 295 113 0 112 0 176 -292 175
-293 142 -3 c78 -1 142 0 142 3 0 2 -92 149 -204 325 l-205 319 59 32 c155 82
232 227 216 406 -15 187 -112 302 -297 354 -78 22 -106 24 -381 27 l-298 4 0
-736z m534 509 c130 -27 186 -92 186 -213 0 -110 -43 -177 -139 -213 -43 -17
-87 -22 -193 -27 l-138 -5 0 237 0 236 108 0 c59 0 138 -7 176 -15z"/>
<path d="M10480 905 l0 -735 116 0 117 0 -5 590 -4 590 31 -88 c17 -48 110
-313 205 -590 l175 -503 109 3 110 3 215 597 c118 329 215 596 216 595 0 -1
-2 -94 -6 -207 -4 -113 -7 -382 -8 -597 l-1 -393 120 0 120 0 0 735 0 735
-172 0 -173 0 -204 -570 c-113 -314 -208 -567 -212 -563 -4 5 -93 253 -197
553 -105 300 -193 553 -197 563 -6 15 -25 17 -181 17 l-174 0 0 -735z"/>
<path d="M13760 1633 c1 -5 115 -334 254 -733 l253 -725 132 -3 c72 -1 131 -1
131 1 0 3 115 332 255 733 140 400 255 729 255 731 0 2 -58 3 -129 3 l-129 0
-161 -477 c-89 -263 -173 -523 -187 -578 -13 -55 -27 -107 -31 -115 -3 -8 -15
23 -27 70 -12 47 -98 313 -191 592 l-170 508 -127 0 c-71 0 -128 -3 -128 -7z"/>
</g>
</svg>
